<?xml version="1.0" encoding="utf-8"?>
<!-- Generator: Adobe Illustrator 15.1.0, SVG Export Plug-In . SVG Version: 6.00 Build 0)  -->
<!DOCTYPE svg PUBLIC "-//W3C//DTD SVG 1.1//EN" "http://www.w3.org/Graphics/SVG/1.1/DTD/svg11.dtd">
<svg version="1.1" id="Layer_1" xmlns="http://www.w3.org/2000/svg" xmlns:xlink="http://www.w3.org/1999/xlink" x="0px" y="0px"
	 width="24.009px" height="24.004px" viewBox="0 0 24.009 24.004" enable-background="new 0 0 24.009 24.004" xml:space="preserve">
<g>
	<g>
		<g>
			<path fill="#01D6E6" d="M22.049,3.444c-0.083,0.088-0.146,0.243-0.146,0.36v17.884c0,0.117-0.097,0.215-0.214,0.215H3.805
				c-0.117,0-0.277,0.067-0.36,0.146l-1.805,1.81c-0.083,0.078-0.054,0.146,0.058,0.146h22.098c0.117,0,0.214-0.088,0.214-0.204
				V1.703c0-0.117-0.068-0.146-0.151-0.068L22.049,3.444z"/>
		</g>
		<g>
			<path fill="#01D6E6" d="M20.2,2.102c0.117,0,0.277-0.058,0.36-0.146l1.81-1.81C22.453,0.068,22.423,0,22.307,0H0.209
				C0.092,0,0,0.098,0,0.214v22.098c0,0.117,0.068,0.137,0.151,0.059l1.805-1.81c0.083-0.078,0.151-0.243,0.151-0.36V2.316
				c0-0.117,0.093-0.215,0.209-0.215H20.2z"/>
		</g>
	</g>
	<path fill="#01D6E6" d="M15.228,4.428c0-0.117-0.098-0.214-0.214-0.214H4.486c-0.117,0-0.209,0.097-0.209,0.214V6.11
		c0,0.117,0.092,0.205,0.209,0.205h3.372c0.112,0,0.209,0.097,0.209,0.214v7.716c0,0.117,0.068,0.137,0.151,0.059l3.07-3.075
		c0.083-0.077,0.146-0.243,0.146-0.359v-4.34c0-0.117,0.097-0.214,0.214-0.214h3.367c0.117,0,0.214-0.088,0.214-0.205V4.428z"/>
</g>
</svg>
