<?xml version="1.0" encoding="utf-8"?>
<!-- Generator: Adobe Illustrator 24.2.2, SVG Export Plug-In . SVG Version: 6.00 Build 0)  -->
<svg version="1.1" id="Layer_1" xmlns="http://www.w3.org/2000/svg" xmlns:xlink="http://www.w3.org/1999/xlink" x="0px" y="0px"
	 viewBox="0 0 134 20" style="enable-background:new 0 0 134 20;" xml:space="preserve">
<style type="text/css">
	.st0{fill:#01D6E6;}
	.st1{fill:#FFFFFF;}
</style>
<g>
	<path class="st0" d="M84.3,1.4c0.2,0,0.4,0.1,0.4,0.3l4.7,10.7c0.1,0.2,0.2,0.2,0.2,0l4.7-10.7c0.1-0.2,0.3-0.3,0.4-0.3h2.8
		c0.2,0,0.3,0.1,0.3,0.3v16.7c0,0.2-0.1,0.3-0.3,0.3h-2.8c-0.2,0-0.3-0.1-0.3-0.3V8.9c0-0.2-0.1-0.2-0.1,0l-3.6,8
		c-0.1,0.1-0.3,0.3-0.4,0.3h-1.7c-0.2,0-0.4-0.1-0.4-0.3l-3.6-8c-0.1-0.1-0.1-0.1-0.1,0v9.5c0,0.2-0.1,0.3-0.3,0.3h-2.8
		c-0.2,0-0.3-0.1-0.3-0.3V1.7c0-0.2,0.1-0.3,0.3-0.3H84.3z"/>
	<path class="st1" d="M14.4,3.9c0,0.2-0.1,0.3-0.3,0.3H10c-0.2,0-0.3,0.1-0.3,0.3v10.6c0,0.2-0.1,0.4-0.2,0.5l-3.1,3
		c-0.1,0.1-0.2,0.1-0.2-0.1V4.5c0-0.2-0.1-0.3-0.3-0.3H1.7C1.6,4.2,1.4,4,1.4,3.9V1.7c0-0.2,0.1-0.3,0.3-0.3h12.4
		c0.2,0,0.3,0.1,0.3,0.3L14.4,3.9L14.4,3.9z"/>
	<path class="st1" d="M60.8,3.9c0,0.2-0.1,0.3-0.3,0.3h-4.1c-0.2,0-0.3,0.1-0.3,0.3v10.6c0,0.2-0.1,0.4-0.2,0.5l-3.1,3
		c-0.1,0.1-0.2,0.1-0.2-0.1V4.5c0-0.2-0.1-0.3-0.3-0.3h-4.1c-0.2,0-0.3-0.1-0.3-0.3V1.7c0-0.2,0.1-0.3,0.3-0.3h12.4
		c0.2,0,0.3,0.1,0.3,0.3L60.8,3.9L60.8,3.9z"/>
	<path class="st1" d="M77.2,14.1c-0.3,1.1-0.7,2-1.3,2.7c-0.6,0.7-1.3,1.3-2.3,1.7c-1,0.4-2.1,0.5-3.5,0.5c-1.4,0-2.6-0.2-3.5-0.6
		c-0.9-0.4-1.7-0.9-2.3-1.7c-0.6-0.8-1-1.7-1.2-2.9s-0.4-2.5-0.4-4c0-1.4,0.1-2.6,0.3-3.7c0.2-1.1,0.6-2,1.2-2.8
		c0.6-0.8,1.3-1.3,2.3-1.8C67.5,1.2,68.7,1,70.2,1s2.7,0.2,3.6,0.6c1,0.4,1.7,1,2.3,1.7c0.5,0.8,0.9,1.7,1.2,2.9s0.3,2.5,0.3,4
		C77.5,11.7,77.4,13,77.2,14.1z M72.9,14.8c0.6-0.9,1-2.4,1-4.6c0-1.2-0.1-2.2-0.2-3c-0.1-0.8-0.4-1.4-0.7-1.9
		c-0.3-0.5-0.7-0.8-1.2-1c-0.5-0.2-1-0.3-1.7-0.3c-0.6,0-1.2,0.1-1.6,0.3c-0.5,0.2-0.9,0.5-1.2,1c-0.3,0.5-0.5,1.1-0.7,1.8
		c-0.2,0.8-0.2,1.7-0.2,2.8c0,2.3,0.3,4,0.9,4.9c0.6,0.9,1.5,1.4,2.8,1.4C71.4,16.1,72.3,15.7,72.9,14.8z"/>
	<path class="st1" d="M28.3,15.9h-6.4c-0.5,0-0.8-0.1-0.9-0.3c-0.1-0.2-0.2-0.5-0.2-0.8v-3.4H28c0.2,0,0.3-0.1,0.3-0.3V8.9
		c0-0.2-0.1-0.3-0.3-0.3h-7.2V5.3c0-0.4,0.1-0.6,0.2-0.8c0.1-0.2,0.5-0.3,0.9-0.3h6.2c0.2,0,0.3-0.1,0.3-0.3V1.7
		c0-0.2-0.1-0.3-0.3-0.3h-7.4c-1.2,0-2.1,0.3-2.6,0.7c-0.5,0.5-0.8,1.4-0.8,2.6v10.6c0,1.3,0.3,2.1,0.8,2.6c0.5,0.5,1.4,0.7,2.6,0.7
		h7.6c0.2,0,0.3-0.1,0.3-0.3v-2.2C28.6,16,28.5,15.9,28.3,15.9z"/>
	<path class="st1" d="M41.5,11.3l-2,3.2l2.4,3.9c0.1,0.1,0.3,0.3,0.5,0.3h3.4c0.2,0,0.2-0.1,0.1-0.3L41.5,11.3z"/>
	<path class="st1" d="M35.9,8.7l2-3.2l-2.4-3.9c-0.1-0.1-0.3-0.3-0.5-0.3h-3.4c-0.2,0-0.2,0.1-0.1,0.3L35.9,8.7z"/>
	<path class="st1" d="M45.7,1.4h-3.4c-0.2,0-0.4,0.1-0.4,0.3l-2.3,3.7l0,0l0,0.1l-0.8,1.2l0,0l-2.6,4.2l-4.7,7.6
		c-0.1,0.1,0,0.3,0.1,0.3H35c0.2,0,0.4-0.1,0.4-0.3l3.1-5c0,0,0,0,0,0l3.2-5.1l0,0l4.2-6.7C46,1.5,45.9,1.4,45.7,1.4z"/>
	<path class="st1" d="M106.3,14.3c-1.2,0-2.1-0.4-2.7-1.2c-0.6-0.8-0.9-2-0.9-3.5v-2c0-1.5,0.3-2.7,0.9-3.5s1.5-1.2,2.7-1.2
		c1.2,0,2.1,0.4,2.7,1.2c0.6,0.8,0.9,2,0.9,3.5h1.3V1.9h2.1v15.7h-2.1v-8h-1.3c0,1.5-0.3,2.7-0.9,3.5
		C108.4,13.9,107.5,14.3,106.3,14.3z M106.3,4.9c-0.6,0-1,0.3-1.2,0.8s-0.3,1.3-0.3,2.3v1.4c0,1,0.1,1.7,0.3,2.3s0.6,0.8,1.2,0.8
		c0.6,0,1-0.3,1.2-0.8c0.2-0.5,0.3-1.3,0.3-2.3V7.9c0-1-0.1-1.7-0.3-2.3C107.3,5.1,106.9,4.9,106.3,4.9z M116.5,18.4h-2.1V1.6h2.1
		V18.4z"/>
	<path class="st1" d="M132.6,11.1v1.9H129v5.3h-2.2v-5.3h-3.4v5.3h-2.2v-5.3h-3.5v-1.9H132.6z M119.7,9.4V2.5h10.8v1.9h-8.6v3h8.8
		v1.9C130.6,9.4,119.7,9.4,119.7,9.4z"/>
</g>
</svg>
