<?xml version="1.0" encoding="utf-8"?>
<!-- Generator: Adobe Illustrator 26.1.0, SVG Export Plug-In . SVG Version: 6.00 Build 0)  -->
<svg version="1.1" id="Layer_1" xmlns="http://www.w3.org/2000/svg" xmlns:xlink="http://www.w3.org/1999/xlink" x="0px" y="0px"
	 viewBox="0 0 245.8 25" style="enable-background:new 0 0 245.8 25;" xml:space="preserve">
<style type="text/css">
	.st0{fill:#B0D3DF;}
	.st1{fill:#FFFFFF;}
</style>
<path class="st0" d="M118.6,6.1H107V4.3h4.8V1.9h2.2v2.4h4.7L118.6,6.1L118.6,6.1z M112.8,14.5c-0.8,0-1.5-0.1-2.1-0.3
	s-1.1-0.5-1.5-0.8s-0.7-0.7-0.9-1.1S108,11.4,108,11v-0.7c0-0.4,0.1-0.8,0.3-1.3s0.5-0.8,0.9-1.1c0.4-0.3,0.9-0.6,1.5-0.8
	c0.6-0.2,1.3-0.3,2.1-0.3s1.5,0.1,2.1,0.3c0.6,0.2,1.1,0.5,1.5,0.8c0.4,0.3,0.7,0.7,0.9,1.1s0.3,0.8,0.3,1.2V11
	c0,0.4-0.1,0.8-0.3,1.3s-0.5,0.8-0.9,1.1s-0.9,0.6-1.5,0.8C114.3,14.4,113.6,14.5,112.8,14.5z M109.9,15.8h12.8v6.8h-2.2v-4.9h-10.6
	V15.8z M112.8,12.7c0.4,0,0.8-0.1,1.2-0.2c0.3-0.1,0.6-0.2,0.8-0.4s0.4-0.4,0.5-0.6c0.1-0.2,0.2-0.4,0.2-0.7v-0.5
	c0-0.2-0.1-0.4-0.2-0.7c-0.1-0.2-0.3-0.4-0.5-0.6c-0.2-0.2-0.5-0.3-0.8-0.4c-0.3-0.1-0.7-0.2-1.2-0.2s-0.8,0.1-1.2,0.2
	c-0.3,0.1-0.6,0.2-0.8,0.4s-0.4,0.4-0.5,0.6c-0.1,0.2-0.2,0.4-0.2,0.7v0.5c0,0.2,0.1,0.4,0.2,0.7c0.1,0.2,0.3,0.4,0.5,0.6
	c0.2,0.2,0.5,0.3,0.8,0.4C111.9,12.7,112.3,12.7,112.8,12.7z M125.6,9.4h-2.9v5.4h-2.2V2.1h2.2v5.3h2.9V9.4z"/>
<path class="st0" d="M145.3,11.4v1.8h-18.6v-1.8H145.3z M143.1,10.3c-0.8-0.3-1.5-0.6-2.3-0.9c-0.8-0.3-1.4-0.6-2-0.9
	c-1-0.5-1.7-0.8-2.1-1.1S136,6.9,136,6.7l0,0c-0.1,0.2-0.3,0.5-0.7,0.7c-0.4,0.3-1.1,0.7-2.1,1.1c-0.6,0.3-1.2,0.6-2,0.9
	s-1.5,0.6-2.3,0.9l-0.8-1.8c1-0.4,2-0.7,2.8-1.1c0.8-0.3,1.5-0.7,2-1c0.4-0.2,0.7-0.4,1-0.6s0.5-0.4,0.6-0.6
	c0.2-0.2,0.3-0.5,0.3-0.7c0.1-0.3,0.1-0.6,0.1-1V2.4h2.2v1.3c0,0.4,0,0.7,0.1,1c0.1,0.3,0.2,0.5,0.3,0.7c0.2,0.2,0.4,0.4,0.6,0.6
	c0.3,0.2,0.6,0.4,1,0.6c0.6,0.3,1.2,0.6,2.1,1c0.8,0.4,1.7,0.7,2.7,1.1L143.1,10.3z M142.7,14.5v7.9h-13.3v-7.9h2.2v2.1h9v-2.1
	H142.7z M140.5,20.6v-2.2h-9v2.2H140.5z"/>
<path class="st0" d="M159.6,13.7c-0.9,0.1-1.7,0.2-2.5,0.2c-0.8,0.1-1.7,0.1-2.7,0.2c-1,0-2.1,0.1-3.3,0.1s-2.7,0-4.4,0v-1.9h4V8.1
	h2.2v4.2c0.6,0,1.2,0,1.7-0.1c0.5,0,1.1-0.1,1.6-0.1s1-0.1,1.6-0.1s1.1-0.1,1.7-0.1L159.6,13.7z M155.4,10.1
	c0.2-0.8,0.3-1.5,0.4-2.2c0.1-0.7,0.1-1.4,0.1-2V5h-7.8V3.2h10v2.4c0,0.4,0,0.8,0,1.2c0,0.4-0.1,0.9-0.1,1.3c0,0.4-0.1,0.8-0.2,1.2
	c-0.1,0.4-0.1,0.8-0.2,1.1L155.4,10.1z M152.1,20.4h11.3v1.9h-13.5v-6.1h2.2V20.4z M160.7,17.2v-15h2.2v6.2h2.9v1.9h-2.9v7
	L160.7,17.2L160.7,17.2z"/>
<path class="st0" d="M170.4,11.3v4.3h2.1c0.7,0,1.4,0,2,0s1.2,0,1.7-0.1c0.5,0,1.1-0.1,1.6-0.1c0.5-0.1,1.1-0.1,1.6-0.2l0.2,1.8
	c-0.5,0.1-1,0.1-1.6,0.2c-0.5,0.1-1.1,0.1-1.7,0.2s-1.3,0.1-2,0.1s-1.5,0-2.5,0h-3.7v-8h6.9V5.6h-7V3.7h9.1v7.6H170.4z M181.4,22.4
	V2.1h2.2v20.3H181.4z"/>
<path class="st0" d="M193.1,12.3c-0.1,0.2-0.3,0.5-0.5,0.7s-0.5,0.6-0.8,0.9c-0.5,0.5-1,1-1.6,1.6s-1.3,1.2-2,1.9l-1.4-1.5
	c1.3-1.2,2.5-2.3,3.5-3.4c0.3-0.4,0.6-0.7,0.8-1.1c0.2-0.3,0.4-0.6,0.5-1c0.1-0.3,0.2-0.6,0.3-1s0.1-0.7,0.1-1.1v-5h2.2v5
	c0,0.4,0,0.8,0.1,1.2c0.1,0.3,0.2,0.7,0.3,1s0.3,0.6,0.5,0.9c0.2,0.3,0.5,0.7,0.8,1c0.5,0.5,1,1,1.5,1.5s1.1,1,1.8,1.6l-1.4,1.5
	c-0.8-0.7-1.4-1.3-1.9-1.8s-1-1-1.4-1.5c-0.3-0.3-0.6-0.7-0.8-0.9C193.4,12.8,193.2,12.5,193.1,12.3L193.1,12.3z M201.4,22.4V2.1
	h2.2v20.3H201.4z"/>
<path class="st0" d="M225.4,17.9v1.8h-18.6v-1.8H225.4z M216.1,9.8c-0.1,0.2-0.4,0.6-0.8,0.9c-0.4,0.4-1,0.8-1.8,1.3
	c-0.6,0.4-1.3,0.8-2,1.3s-1.5,0.9-2.5,1.4l-1.1-1.7c0.9-0.5,1.7-0.9,2.4-1.4c0.7-0.4,1.5-0.9,2.2-1.4c0.5-0.3,0.9-0.7,1.2-1
	s0.6-0.6,0.8-1c0.2-0.3,0.3-0.7,0.4-1.1c0.1-0.4,0.1-0.9,0.1-1.4V3.6h2.2v2.2c0,0.5,0,1,0.1,1.4s0.2,0.8,0.4,1.1
	c0.2,0.3,0.5,0.7,0.8,1c0.4,0.3,0.8,0.7,1.4,1.1c0.7,0.5,1.4,0.9,2.1,1.3s1.5,0.8,2.3,1.3l-1.1,1.7c-0.8-0.5-1.6-0.9-2.4-1.4
	c-0.8-0.4-1.5-0.9-2.2-1.3c-0.7-0.5-1.3-0.9-1.7-1.2C216.5,10.4,216.2,10.1,216.1,9.8L216.1,9.8z"/>
<path class="st0" d="M236.5,12.6c-0.5,0.1-1,0.1-1.5,0.2c-0.5,0-1,0.1-1.7,0.1s-1.4,0-2.3,0s-2,0-3.4,0V3.2h7.8V5h-5.7v2.2h4.8v1.7
	h-4.8v2.2c0.8,0,1.5,0,2.1,0s1.1,0,1.6,0s1-0.1,1.4-0.1s0.9-0.1,1.4-0.2L236.5,12.6z M244.1,22.4h-12.9V15h12.9V22.4z M241.9,16.8
	h-8.6v3.8h8.6V16.8z M235.6,6.9h2.6V2.4h2.1v11.5h-2.1V8.7h-2.6V6.9z M242,2.1h2.1v11.8H242V2.1z"/>
<g>
	<path class="st1" d="M21.3,14.2v2.4h-8.3v6.4h-2.9v-6.4H1.9v-2.4H21.3z M18.7,2.7v9.7H4.5V2.7h2.9v2.6h8.4V2.7H18.7z M15.8,9.9V7.7
		H7.4v2.2H15.8z"/>
	<path class="st1" d="M28.9,10.2c0,0.2-0.2,0.4-0.5,0.7s-0.6,0.6-0.9,0.9c-0.5,0.5-1,1-1.6,1.4c-0.5,0.4-1.1,1-1.8,1.5l-1.8-2.1
		c0.6-0.5,1.2-0.9,1.8-1.5c0.6-0.5,1.2-1,1.7-1.5c0.5-0.5,0.9-1.1,1.2-1.6c0.2-0.5,0.4-1.2,0.4-2V2.8h2.9V6c0,0.4,0,0.8,0.1,1.1
		s0.1,0.6,0.2,0.9c0.1,0.3,0.3,0.5,0.4,0.7c0.2,0.2,0.4,0.5,0.7,0.7c0.5,0.5,1.1,0.9,1.7,1.3c0.6,0.4,1.1,0.8,1.7,1.2l-1.7,2
		c-0.4-0.3-0.9-0.7-1.4-1c-0.5-0.4-1-0.8-1.6-1.2c-0.4-0.3-0.7-0.6-1-0.8C29.2,10.6,29,10.4,28.9,10.2L28.9,10.2z M29.2,20.4H40v2.5
		H26.3v-7.2h2.9V20.4z M39.5,7.4h2.8V10h-2.8v7h-2.9V1.9h2.9V7.4z"/>
	<path class="st1" d="M48.5,17.9c-1.6,0-2.8-0.5-3.6-1.6c-0.8-1-1.2-2.5-1.2-4.4V9.5c0-1.9,0.4-3.4,1.2-4.4c0.8-1,2-1.6,3.6-1.6
		S51.3,4,52,5c0.8,1,1.1,2.5,1.2,4.4h1.7V2.3h2.7V22h-2.7V11.9h-1.7c0,1.9-0.4,3.4-1.2,4.4C51.3,17.4,50.1,17.9,48.5,17.9z M48.5,6
		c-0.8,0-1.3,0.3-1.6,1c-0.3,0.6-0.4,1.6-0.4,2.8v1.8c0,1.2,0.1,2.2,0.4,2.8c0.3,0.6,0.8,1,1.6,1s1.3-0.3,1.6-1
		c0.3-0.6,0.4-1.6,0.4-2.8V9.8c0-1.2-0.1-2.2-0.4-2.8C49.8,6.3,49.3,6,48.5,6z M61.9,23.1h-2.7V1.9h2.7V23.1z"/>
	<path class="st1" d="M83.6,13.9v2.4h-4.7V23h-2.9v-6.7h-4.4V23h-2.9v-6.7h-4.7v-2.4H83.6z M66.7,11.6V3h14.1v2.4H69.5v3.8h11.5v2.4
		H66.7z"/>
	<path class="st1" d="M96.2,13.1H86.1V2.8h2.8v3h4.5v-3h2.8V13.1z M88.5,15.3h14v8h-2.9v-5.6H88.5V15.3z M88.9,10.7h4.5V8.2h-4.5
		V10.7z M102.5,14.3h-2.9V1.9h2.9V14.3z"/>
</g>
</svg>
