<?xml version="1.0" encoding="utf-8"?>
<!-- Generator: Adobe Illustrator 15.1.0, SVG Export Plug-In . SVG Version: 6.00 Build 0)  -->
<!DOCTYPE svg PUBLIC "-//W3C//DTD SVG 1.1//EN" "http://www.w3.org/Graphics/SVG/1.1/DTD/svg11.dtd">
<svg version="1.1" id="Isolation_Mode" xmlns="http://www.w3.org/2000/svg" xmlns:xlink="http://www.w3.org/1999/xlink" x="0px"
	 y="0px" width="11.999px" height="15.959px" viewBox="0 0 11.999 15.959" enable-background="new 0 0 11.999 15.959"
	 xml:space="preserve">
<path fill="#FFFFFF" d="M12,2.309c0,0.151-0.123,0.274-0.272,0.274H7.9c-0.15,0-0.273,0.123-0.273,0.271v9.781
	c0,0.15-0.087,0.359-0.195,0.462l-2.863,2.8c-0.107,0.106-0.195,0.069-0.195-0.081V2.854c0-0.148-0.123-0.271-0.273-0.271H0.271
	C0.123,2.583,0,2.46,0,2.309V0.273C0,0.123,0.123,0,0.271,0h11.456C11.877,0,12,0.123,12,0.273V2.309z"/>
</svg>
