<?xml version="1.0" encoding="utf-8"?>
<!-- Generator: Adobe Illustrator 26.1.0, SVG Export Plug-In . SVG Version: 6.00 Build 0)  -->
<svg version="1.1" id="Layer_1" xmlns="http://www.w3.org/2000/svg" xmlns:xlink="http://www.w3.org/1999/xlink" x="0px" y="0px"
	 viewBox="0 0 150 30" style="enable-background:new 0 0 150 30;" xml:space="preserve">
<style type="text/css">
	.st0{fill:#3279BE;}
	.st1{fill:#EC548D;}
	.st2{fill:#11143C;}
	.st3{fill:#FFFFFF;}
</style>
<g>
	<g>
		<path class="st0" d="M35.04,4.47h-8.31c-0.61,0-1.11-0.49-1.11-1.11v0c0-0.61,0.49-1.11,1.11-1.11h8.31
			c0.61,0,1.11,0.49,1.11,1.11v0C36.14,3.97,35.65,4.47,35.04,4.47z"/>
	</g>
	<g>
		<path class="st0" d="M35.04,11.24h-8.31c-0.61,0-1.11-0.49-1.11-1.11v0c0-0.61,0.49-1.11,1.11-1.11h8.31
			c0.61,0,1.11,0.49,1.11,1.11v0C36.14,10.75,35.65,11.24,35.04,11.24z"/>
	</g>
	<g>
		<path class="st0" d="M35.04,7.86h-8.31c-0.61,0-1.11-0.49-1.11-1.11v0c0-0.61,0.49-1.11,1.11-1.11h8.31
			c0.61,0,1.11,0.49,1.11,1.11v0C36.14,7.36,35.65,7.86,35.04,7.86z"/>
	</g>
	<g>
		<path class="st1" d="M38.58,14.51v-0.8c0-0.66-0.55-1.2-1.24-1.2h-8.31h-3.29h-8.62c-0.45,0-0.82,0.36-0.82,0.8v13.43
			c0,0.44,0.37,0.8,0.82,0.8h8.62h3.29h6.25h3.29l0,0v-3.21l0,0v-2.7l0,0v-1.86c0-0.66-0.55-1.2-1.24-1.2h-4.64
			c-0.34,0-0.62,0.27-0.62,0.6v1.44c0,0.33,0.28,0.6,0.62,0.6h2.25c0.34,0,0.62,0.27,0.62,0.6v1.64c0,0.33-0.28,0.6-0.62,0.6h-4.26
			c-0.68,0-1.24-0.54-1.24-1.2v-5.92c0-0.66,0.55-1.2,1.24-1.2h6.64C38.03,15.71,38.58,15.17,38.58,14.51z"/>
	</g>
	<g>
		<path class="st2" d="M17.34,13.46H3.46V3.41C3.46,2.08,4.56,1,5.93,1h11.42c3.61,0,6.53,2.79,6.53,6.23v0
			C23.88,10.67,20.95,13.46,17.34,13.46z"/>
	</g>
	<g>
		<path class="st2" d="M18.35,27.86H3.46V12.19h14.9c4.84,0,8.76,3.51,8.76,7.84v0C27.12,24.35,23.19,27.86,18.35,27.86z"/>
	</g>
	<g>
		<ellipse class="st3" cx="14.17" cy="8" rx="2.85" ry="2.78"/>
	</g>
	<g>
		<path class="st3" d="M16.66,25.46h-4.97c-0.2,0-0.36-0.16-0.36-0.35v-7.87c0-1.53,1.28-2.78,2.85-2.78h0
			c1.57,0,2.85,1.24,2.85,2.78v7.87C17.02,25.3,16.86,25.46,16.66,25.46z"/>
	</g>
	<g>
		<path class="st2" d="M40.02,29H1.87C1.39,29,1,28.62,1,28.15c0-0.47,0.39-0.85,0.87-0.85h38.15c0.48,0,0.87,0.38,0.87,0.85
			C40.89,28.62,40.5,29,40.02,29z"/>
	</g>
</g>
<g>
	<path class="st2" d="M65.94,16.72v2.57h-8.69v6.74H54.2v-6.74h-8.71v-2.57H65.94z M63.18,4.55v10.18H48.25V4.55h3.02v2.76h8.88
		V4.55H63.18z M60.15,12.2V9.85h-8.88v2.35H60.15z"/>
	<path class="st2" d="M73.31,12.52c-0.05,0.21-0.21,0.46-0.49,0.76s-0.6,0.61-0.97,0.95c-0.54,0.51-1.09,1-1.63,1.46
		c-0.54,0.46-1.19,1-1.94,1.61l-1.87-2.21c0.62-0.48,1.25-1,1.88-1.55c0.63-0.55,1.23-1.09,1.79-1.62c0.58-0.56,0.99-1.12,1.24-1.68
		c0.25-0.56,0.37-1.25,0.37-2.06V4.69h3.07v3.36c0,0.43,0.02,0.82,0.07,1.15c0.05,0.34,0.13,0.64,0.24,0.91
		c0.11,0.27,0.27,0.53,0.47,0.78c0.2,0.25,0.46,0.51,0.78,0.78c0.58,0.5,1.16,0.97,1.75,1.42c0.59,0.45,1.18,0.88,1.75,1.3
		l-1.75,2.11c-0.46-0.34-0.96-0.71-1.49-1.1c-0.53-0.4-1.07-0.83-1.63-1.3c-0.42-0.34-0.77-0.63-1.06-0.89s-0.47-0.49-0.55-0.7
		H73.31z M73.64,23.2h11.33v2.59H70.59V18.2h3.05V23.2z M84.44,9.59h2.93v2.64h-2.93v7.32h-3.03V3.71h3.03V9.59z"/>
	<path class="st2" d="M93.3,20.6c-1.7,0-2.95-0.54-3.76-1.63c-0.81-1.09-1.21-2.65-1.21-4.68V11.7c0-2.03,0.4-3.59,1.21-4.68
		c0.81-1.09,2.06-1.63,3.76-1.63c1.7,0,2.94,0.54,3.74,1.63c0.8,1.09,1.21,2.64,1.22,4.66h1.78V4.16h2.88v20.78h-2.88V14.29h-1.78
		c0,2.03-0.4,3.59-1.21,4.68C96.24,20.06,94.99,20.6,93.3,20.6z M93.3,8.03c-0.83,0-1.4,0.34-1.72,1.02
		c-0.31,0.68-0.47,1.68-0.47,2.99v1.92c0,1.31,0.16,2.31,0.47,2.99c0.31,0.68,0.88,1.02,1.72,1.02c0.83,0,1.4-0.34,1.72-1.02
		c0.31-0.68,0.47-1.68,0.47-2.99v-1.92c0-1.31-0.16-2.31-0.47-2.99C94.7,8.37,94.13,8.03,93.3,8.03z M107.43,26.03h-2.88V3.71h2.88
		V26.03z"/>
	<path class="st2" d="M129.66,16.38v2.57h-4.9v7.01h-3v-7.01h-4.66v7.01h-3v-7.01h-4.9v-2.57H129.66z M111.82,14V4.88h14.88v2.57
		h-11.86v3.98h12.14V14H111.82z"/>
	<path class="st2" d="M142.35,15.54h-10.68V4.67h2.98v3.19h4.73V4.67h2.98V15.54z M134.22,17.84H149v8.45h-3.02v-5.88h-11.76V17.84z
		 M134.65,13.02h4.73v-2.64h-4.73V13.02z M149,16.84h-3.02V3.71H149V16.84z"/>
</g>
<text transform="matrix(1 0 0 1 43.0218 75.5096)" class="st2" style="font-family:'NanumSquareEB'; font-size:24px;">부산에듀빅</text>
</svg>
